<svg xmlns="http://www.w3.org/2000/svg" preserveAspectRatio="xMinYMin meet" viewBox="0 0 80 70"><path stroke="#444" stroke-width=".25" stroke-linecap="square" stroke-linejoin="square" d="M13 13h50M13 25h50M13 37h50M13 49h50M13 61h50M13 13v48m10-48v48m10-48v48m10-48v48m10-48v48m10-48v48"/><path stroke="#444" stroke-width="2" stroke-linecap="round" stroke-linejoin="round" d="M13 13h50"/><g font-size="0.3rem" fill="#444" font-family="Verdana" text-anchor="middle"><text y="53" transform="translate(13 13)">E2</text><text x="10" y="53" transform="translate(13 13)">A2</text><text x="20" y="53" transform="translate(13 13)">D3</text><text x="30" y="53" transform="translate(13 13)">G3</text><text x="40" y="53" transform="translate(13 13)">B3</text><text x="50" y="53" transform="translate(13 13)">E4</text></g><text font-size="0.7rem" fill="#444" font-family="Verdana" text-anchor="middle" y="-2" transform="translate(13 13)">x</text><circle stroke-width=".25" stroke="#444" fill="transparent" cx="10" cy="-4" r="2" transform="translate(13 13)"/><g transform="translate(13 13)"><circle stroke-width=".25" stroke="#444" fill="#444" cx="20" cy="18" r="4"/><text font-size="4" font-family="Verdana" text-anchor="middle" fill="#fff" x="20" y="19.5">2</text></g><g transform="translate(13 13)"><circle stroke-width=".25" stroke="#444" fill="#444" cx="30" cy="18" r="4"/><text font-size="4" font-family="Verdana" text-anchor="middle" fill="#fff" x="30" y="19.5">3</text></g><g transform="translate(13 13)"><circle stroke-width=".25" stroke="#444" fill="#444" cx="40" cy="6.5" r="4"/><text font-size="4" font-family="Verdana" text-anchor="middle" fill="#fff" x="40" y="8">1</text></g><circle stroke-width=".25" stroke="#444" fill="transparent" cx="50" cy="-4" r="2" transform="translate(13 13)"/></svg>