<svg xmlns="http://www.w3.org/2000/svg" preserveAspectRatio="xMinYMin meet" viewBox="0 0 80 70"><path stroke="#444" stroke-width=".25" stroke-linecap="square" stroke-linejoin="square" d="M23 13h30M23 25h30M23 37h30M23 49h30M23 61h30M23 13v48m10-48v48m10-48v48m10-48v48"/><path stroke="#444" stroke-width="2" stroke-linecap="round" stroke-linejoin="round" d="M23 13h30"/><g font-size="0.3rem" fill="#444" font-family="Verdana" text-anchor="middle"><text x="10" y="53" transform="translate(13 13)">G4</text><text x="20" y="53" transform="translate(13 13)">C4</text><text x="30" y="53" transform="translate(13 13)">E4</text><text x="40" y="53" transform="translate(13 13)">A4</text></g><g transform="translate(13 13)"><path d="M10 10.5a4 4 0 1 1 0-8M10 2.35h30v8.25H10zM40 2.5a4 4 0 1 1 0 8" fill="#555" fill-opacity=".2"/><circle stroke-width=".25" stroke="#444" fill="#444" cx="20" cy="6.5" r="4"/><circle stroke-width=".25" stroke="#444" fill="#444" cx="30" cy="6.5" r="4"/><circle stroke-width=".25" stroke="#444" fill="#444" cx="40" cy="6.5" r="4"/><path fill="#444" d="M20 2.35h20v8.25H20z"/><text font-size="4" font-family="Verdana" text-anchor="middle" fill="#fff" x="20" y="8">1</text><text font-size="4" font-family="Verdana" text-anchor="middle" fill="#fff" x="30" y="8">1</text><text font-size="4" font-family="Verdana" text-anchor="middle" fill="#fff" x="40" y="8">1</text></g><g transform="translate(13 13)"><circle stroke-width=".25" stroke="#444" fill="#444" cx="10" cy="30" r="4"/><text font-size="4" font-family="Verdana" text-anchor="middle" fill="#fff" x="10" y="31.5">3</text></g></svg>