<svg xmlns="http://www.w3.org/2000/svg" viewBox="0 0 1030.31 227.6"><defs><style>.cls-1{fill:#1de9b6;}.cls-2{fill:#231f20;}</style></defs><title>Asset 10</title><g id="Layer_2" data-name="Layer 2"><g id="Layer_1-2" data-name="Layer 1"><path class="cls-1" d="M273.07.41l-8.63,2.88c-.1,35.33,0,70.66-.13,106,0,8.49-.09,17-.08,25.45a38.76,38.76,0,0,1-10.37,27,58.72,58.72,0,0,1-23,15.33,64.62,64.62,0,0,1-18.52,4.21c-11.72.85-23-.75-33.31-6.88-8.84-5.26-14.72-12.72-16.19-23.13a30.1,30.1,0,0,1,2.91-17.47c4.06-8.55,10.45-15,18.34-20a66.63,66.63,0,0,1,28.68-10,58.61,58.61,0,0,1,29,3.75c1.17.47,1.2.45,1.2-.8,0-16.29.23-32.59-.08-48.87-.22-12,0-24.05-.19-36.07,0-.86,0-1.72,0-2.58,0-1.76-.1-1.83-1.78-1.5q-11.29,2.2-22.5,4.8C205.2,25.61,192,28.89,179,32.68a341.07,341.07,0,0,0-39.34,13.61c-7.4,3.17-14.59,6.72-21.06,11.59a3.84,3.84,0,0,0-1.7,3.43c0,28.27-.06,56.54.09,84.81,0,5.75.11,11.52.21,17.28,0,1.63.48,3.22.55,4.86.4,8.88-2.68,16.56-8.06,23.42a55.68,55.68,0,0,1-21.93,16.55,66.61,66.61,0,0,1-14.65,4.58,51.09,51.09,0,0,1-6.76.68c-.35,0-.72-.1-1,.13H55c-2.45-.34-4.94-.36-7.38-.9a46,46,0,0,1-19.72-9.07c-6-4.94-10.25-11.09-11.35-18.93-1.27-9.15,1.15-17.42,6.58-24.87,6.05-8.3,14.07-14.06,23.35-18.17a66.21,66.21,0,0,1,21.68-5.46,59.33,59.33,0,0,1,24.41,2.86c.34.12.69.21,1,.36,1,.42,1.36.08,1.29-.93a2.84,2.84,0,0,1,0-.41q.08-22.32.36-44.63c.13-11.07-.14-22.14.23-33.2,0-.19,0-.39,0-.59L5.4,89.74A7.9,7.9,0,0,0,0,97.24L.12,219.71A7.9,7.9,0,0,0,8,227.6H272.76a7.91,7.91,0,0,0,7.9-7.8L283.46,8A7.89,7.89,0,0,0,273.07.41Z"/><path class="cls-2" d="M385.31,177.23a69.6,69.6,0,0,1-25.47-26.47,75.19,75.19,0,0,1-9.31-37,74.37,74.37,0,0,1,9.31-36.79,70.5,70.5,0,0,1,25.47-26.46A67.65,67.65,0,0,1,421,40.69q13.88,0,24,3.65a72.16,72.16,0,0,1,20.54,12,8.6,8.6,0,0,1,2.92,3.38,10.61,10.61,0,0,1,.73,4.1,7.75,7.75,0,0,1-2.65,6,8.92,8.92,0,0,1-6.12,2.37A9.89,9.89,0,0,1,454,69.9a53.31,53.31,0,0,0-14.61-9.22q-7.11-2.84-18.44-2.83a48.39,48.39,0,0,0-26.19,7.48,54.18,54.18,0,0,0-19,20.36,59.54,59.54,0,0,0,0,56.13,54.26,54.26,0,0,0,19,20.26A48.4,48.4,0,0,0,421,169.57q17.53,0,33.59-12a10.5,10.5,0,0,1,6-2.19,7.52,7.52,0,0,1,5.75,2.46,9.17,9.17,0,0,1,2.28,6.48,9.31,9.31,0,0,1-2.92,6.76A69.43,69.43,0,0,1,421,186.91,68.13,68.13,0,0,1,385.31,177.23Z"/><path class="cls-2" d="M569.4,89.79a38.64,38.64,0,0,1,15.7,16q5.65,10.5,5.66,25.28V176a9.31,9.31,0,1,1-18.62,0v-44.9q0-14.79-7.94-22.36t-21.09-7.58a31.27,31.27,0,0,0-14,3.1,24.9,24.9,0,0,0-9.86,8.4,20.83,20.83,0,0,0-3.56,11.87V176a9.24,9.24,0,0,1-2.55,6.67A9.36,9.36,0,0,1,497.11,176V51.83a9,9,0,0,1,2.65-6.76,9.27,9.27,0,0,1,16,6.76V96.55a40.68,40.68,0,0,1,13.88-9,46,46,0,0,1,17.16-3.19A46.48,46.48,0,0,1,569.4,89.79Z"/><path class="cls-2" d="M641,179.33a45.76,45.76,0,0,1-17.89-18,52.84,52.84,0,0,1-6.39-26.1A53.22,53.22,0,0,1,623.07,109,45.76,45.76,0,0,1,641,91a52.2,52.2,0,0,1,26.1-6.48A51.39,51.39,0,0,1,692.89,91a46.62,46.62,0,0,1,17.89,18,52.63,52.63,0,0,1,6.48,26.29,52.84,52.84,0,0,1-6.39,26.1,45.93,45.93,0,0,1-17.8,18,55.62,55.62,0,0,1-52.11,0ZM683.76,165a30.17,30.17,0,0,0,11.5-12.14,37,37,0,0,0,4.11-17.61,37.6,37.6,0,0,0-4.11-17.71,30.09,30.09,0,0,0-11.5-12.23,34,34,0,0,0-33.4,0,30.7,30.7,0,0,0-11.59,12.23,36.94,36.94,0,0,0-4.2,17.71,36.38,36.38,0,0,0,4.2,17.61A30.79,30.79,0,0,0,650.36,165a34,34,0,0,0,33.4,0Z"/><path class="cls-2" d="M809.08,87.06q5.48,2.91,5.47,7.3a6.43,6.43,0,0,1-.18,1.82q-1.65,5.85-7.3,5.84a15.5,15.5,0,0,1-2.74-.36,72.18,72.18,0,0,0-11.87-1.28q-13.14,0-21.17,6a19.23,19.23,0,0,0-8,16.24V176c0,2.92-.76,5.18-2.28,6.76s-3.81,2.37-6.85,2.37-5.17-.76-6.75-2.28S745,179,745,176V94.36a8.28,8.28,0,0,1,9.13-9.13q9.12,0,9.13,9.13v3.47a38.41,38.41,0,0,1,13.51-10,40.85,40.85,0,0,1,17.15-3.66Q803.6,84.13,809.08,87.06Z"/><path class="cls-2" d="M919.33,45.07a9.17,9.17,0,0,1,2.56,6.76v83.23a50.78,50.78,0,0,1-6.67,25.83,49,49,0,0,1-18.07,18.26,49.54,49.54,0,0,1-25.46,6.66A50.58,50.58,0,0,1,846,179.15a48,48,0,0,1-18.16-18.26,51.42,51.42,0,0,1-6.57-25.83,54.47,54.47,0,0,1,6.11-25.83,46.18,46.18,0,0,1,16.8-18.16,45.54,45.54,0,0,1,59,10V51.83a9,9,0,0,1,2.64-6.76,9.24,9.24,0,0,1,6.67-2.55A9.12,9.12,0,0,1,919.33,45.07ZM888.21,164.91a31.41,31.41,0,0,0,11.59-12.32,36.54,36.54,0,0,0,4.2-17.53,36.06,36.06,0,0,0-4.2-17.43,32.24,32.24,0,0,0-44.63-12.23,32.26,32.26,0,0,0-11.69,12.23,35.44,35.44,0,0,0-4.28,17.43,35.91,35.91,0,0,0,4.28,17.53,32.09,32.09,0,0,0,11.69,12.32,32.76,32.76,0,0,0,33,0Z"/><path class="cls-2" d="M967.7,182q-11-3.84-17.16-10a7.73,7.73,0,0,1-2.37-5.66,8.52,8.52,0,0,1,3.65-7.12,11.09,11.09,0,0,1,6.39-2.56,9.79,9.79,0,0,1,6.94,3.29q3.47,3.84,10.4,6.66a38.71,38.71,0,0,0,14.79,2.83q10.39,0,16.15-3.47t5.75-9.31q0-5.65-5.66-9.4t-19.16-6.29q-35.05-6.75-35-28.85a22.55,22.55,0,0,1,5.29-15.15,32.23,32.23,0,0,1,13.88-9.31,53.4,53.4,0,0,1,18.25-3.1,56,56,0,0,1,21.27,3.83,36.42,36.42,0,0,1,14.87,10.59,9.31,9.31,0,0,1,2.38,5.84q0,3.1-3.11,5.66a8.42,8.42,0,0,1-5.11,1.46,12.46,12.46,0,0,1-8.58-3.47,27.45,27.45,0,0,0-9.67-5.93,39.13,39.13,0,0,0-12.42-1.73q-8.38,0-13.78,2.83t-5.38,7.94a10,10,0,0,0,1.82,6.11c1.22,1.64,3.53,3.17,6.94,4.57a88.32,88.32,0,0,0,14.79,4.1q19.89,4,28.2,11.14a23.15,23.15,0,0,1,8.3,18.43,26.93,26.93,0,0,1-4.56,15.25,30.44,30.44,0,0,1-13.42,10.77q-8.85,3.92-21.26,3.92A70.37,70.37,0,0,1,967.7,182Z"/></g></g></svg>